<?xml version="1.0" encoding="UTF-8"?>
<svg width="16" height="16" viewBox="0 0 16 16" fill="none" xmlns="http://www.w3.org/2000/svg">
<rect width="16" height="16" rx="8" fill="#A66953"/>
<path fill-rule="evenodd" clip-rule="evenodd" d="M0.0264282 7.34504L0.400001 7.275H1.05H1.7L2.325 7.35L2.925 7.45L3.475 7.6L4 7.775L4.525 7.975L5.05 8.275L5.525 8.6L5.975 9L4.1 4.9L3.9 4.275V3.6L4 2.925L4.225 2.35L4.575 1.825L5.025 1.425L5.55 1.175L6.25 1L6.925 1.05L7.575 1.175L8.175 1.425L8.675 1.775L9.15 2.3L9.475 2.925L9.65 3.7L9.6 4.425L14.9 11.45L8.375 6.275L9.75 8.2L10.325 9.15L10.65 10.075L10.725 10.625V11.15L10.6 12.2L9.725 15.225V14.825L9.04145 15.9328C12.9677 15.4224 16 12.0653 16 8C16 3.58172 12.4183 0 8 0C3.80224 0 0.359614 3.23312 0.0264282 7.34504Z" fill="#D9BF3D"/>
<ellipse cx="7.10001" cy="3.35001" rx="0.4" ry="0.4" fill="#D9BF3D"/>
</svg>
