<svg width="85" height="92" viewBox="0 0 85 92" fill="none" xmlns="http://www.w3.org/2000/svg">
<circle cx="50" cy="35" r="35" fill="#D9BF3D"/>
<path d="M25.15 88.9L24.7 89.9L25.35 89.5L26.05 89.25L26.95 90L28.5 92L28.3 90.95L28.25 90.15L31.2 90.95L33.95 91.3L31.1 90.25L30.1 89.55L31.05 89.6L31.9 89.75L30.6 89.25L29.6 89L28.65 88.85L28.15 88.7L27.7 88.2L27.45 87.9L30.15 69.75L30.4 69.35L30.7 69L31.05 68.6L31.25 68.05V67.3L31.2 66.6L34.05 58.05L35.9 57.75L37.7 57.25L39.5 56.55L41.15 55.7L45.6 67L45.7 67.45V67.85L45.8 68.2L45.95 68.45L46.45 68.85L46.95 69.1L47.45 69.25L61.05 86.9L60.2 87.65L59.6 88.6L60.55 88.2L61.35 87.95L62.65 89.25L64 90.35L63.6 89.4L63.45 88.75L65.45 89L67.6 89.35L69.35 89.4L67.4 88.75L65.4 88.25L66.35 88L67.35 87.8L65.15 87.45L63 86.65L49.75 69.5L49.65 69.05L49.6 68.6L49.5 68.25L49.1 67.75L48.65 67.5L48.15 67.3L47.7 66.95L47.3 66.55L42.7 54.7L44.5 53.15L45.85 51.45L48.65 53.05L47.65 55.55L51.95 52.7L56.3 49L61.45 40.5V41.3L63.2 35.25L63.45 33.15V32.1L63.3 31L62.65 29.15L61.5 27.25L58.75 23.4L71.8 33.75L61.2 19.7L61.3 18.25L60.95 16.7L60.3 15.45L59.35 14.4L58.35 13.7L57.15 13.2L55.85 12.95L54.5 12.85L53.1 13.2L52.05 13.7L51.15 14.5L50.45 15.55L50 16.7L49.8 18.05V19.4L50.2 20.65L53.95 28.85L53.05 28.05L52.1 27.4L51.05 26.8L50 26.4L48.95 26.05L47.85 25.75L46.65 25.55L45.4 25.4H44.1H42.8L41.6 25.55L40.5 25.75L38.35 26.4L36.35 27.25L20 36.7L17.6 38.35L15.55 39.95L13.5 41.7L11.5 43.65L9.6 45.6L8 47.75L6.6 49.8L5.45 52.15L0 68.85L18.3 61.75L23.1 59.8L27.55 57.35L28.6 57.75L29.75 58.05L31.05 58.2H32.3L30.15 63.5L29.75 64L29.25 64.4L28.85 64.85L28.7 65.5V66.25L28.85 66.9L28.9 67.55L28.85 68.25L25.95 88.05L25.15 88.9Z" fill="#A36650"/>
<ellipse cx="56.2" cy="17.55" rx="0.8" ry="0.8" fill="#D9BF3D"/>
</svg>
