<svg width="32" height="32" viewBox="0 0 32 32" fill="none" xmlns="http://www.w3.org/2000/svg">
<path d="M26.1489 27.1176C19.0169 31.7712 0.0707479 12.7239 5.13138 5.79578C5.369 5.47043 5.72622 5.25178 6.11558 5.1493L9.80055 4.17959C10.4623 4.00545 11.1557 4.31921 11.4618 4.93117L13.431 8.8693C13.6412 9.28948 13.6338 9.7858 13.4117 10.1999L11.8693 13.0732C11.5677 13.6351 11.6699 14.3285 12.1209 14.7795L17.2737 19.9324C17.7139 20.3726 18.3862 20.4816 18.9429 20.2032L21.9232 18.7129C22.3122 18.5185 22.7683 18.5093 23.1645 18.6881L26.8384 20.3462C27.443 20.6191 27.7844 21.2675 27.6666 21.92C27.399 23.4045 27.1123 24.9933 26.9487 25.9011C26.8589 26.399 26.5723 26.8415 26.1489 27.1176Z" fill="#6B7332"/>
</svg>
